<svg xmlns="http://www.w3.org/2000/svg" data-name="Layer 1" viewBox="0 0 168 168" id="naturopathy"><path fill="#2d4356" d="M99.42291,83.187c49.27631-5.8374,39.85736-54,39.85736-54C86.37891,35.75488,99.42291,83.187,99.42291,83.187Zm6.77051-34.68365c6.13367-9.15179,16.69141-14.8891,31.3974-17.0683.6543,5.38776,1.6377,21.37592-7.41992,33.8017-5.97559,8.19781-15.26172,13.38776-27.61621,15.47223l20.26459-28.94867a.99993.99993,0,1,0-1.63855-1.14655l-20.418,29.16895C99.76563,73.86566,98.54,59.92236,106.19342,48.50336Z"></path><path fill="#2d4356" d="M90.793 73.187s15.14445-29.15186-20.382-40C70.41107 33.187 57.66412 63.26367 90.793 73.187zM71.64941 35.688c9.59277 3.27148 15.8692 8.28607 18.66986 14.9248 3.03522 7.19342 1.27643 14.7373-.11615 18.74457L82.89447 54.73969a1.00008 1.00008 0 1 0-1.78894.89459l7.32709 14.65381c-7.9082-2.9234-13.34082-7.41553-16.15924-13.3877C68.34961 48.58447 70.47949 39.42041 71.64941 35.688zM130.42871 110.09766a.9986.9986 0 0 0-1.332.47266c-.084.17676-8.70605 17.70306-33.24707 21.44135a.99969.99969 0 1 0 .30078 1.97662c25.63568-3.9043 34.39264-21.7998 34.75293-22.55957A.999.999 0 0 0 130.42871 110.09766zM103.05957 22s-18.752 8.248-7.42187 26C95.6377 48 115.12207 41.12891 103.05957 22zM94.49512 33.76117c1.41016-4.69086 5.543-7.728 7.82129-9.09467 2.62988 4.73779 3.33008 8.96576 2.08008 12.58789-1.53607 4.45306-5.708 7.07269-7.95117 8.20068C94.08978 41.22217 93.43359 37.29486 94.49512 33.76117zM157 13.5a2 2 0 1 0-2 2A2.00229 2.00229 0 0 0 157 13.5zm-2 1a1 1 0 1 1 1-1A1.001 1.001 0 0 1 155 14.5zM75 20.5a2 2 0 1 0-2-2A2.00229 2.00229 0 0 0 75 20.5zm0-3a1 1 0 1 1-1 1A1.001 1.001 0 0 1 75 17.5zM115 16.5a3 3 0 1 0-3-3A3.00349 3.00349 0 0 0 115 16.5zm0-4.5a1.5 1.5 0 1 1-1.5 1.5A1.50143 1.50143 0 0 1 115 12zM45 35.5a2 2 0 1 0-2-2A2.00229 2.00229 0 0 0 45 35.5zm0-3a1 1 0 1 1-1 1A1.001 1.001 0 0 1 45 32.5zM148 48.5a2 2 0 1 0-2-2A2.00229 2.00229 0 0 0 148 48.5zm0-3a1 1 0 1 1-1 1A1.001 1.001 0 0 1 148 45.5z"></path><path fill="#2d4356" d="M152 144H99.96729c26.2149-6.65521 46.16107-29.28418 47.935-56.93854a2.84041 2.84041 0 0 0-.7666-2.14551A2.93611 2.93611 0 0 0 145 84H63.15723L48.14258 61.04047a10 10 0 1 0-10.53217 5.85162h-.001L45.66992 84H23a2.93611 2.93611 0 0 0-2.13568.916 2.84131 2.84131 0 0 0-.7666 2.14655C21.87164 114.716 41.81781 137.34479 68.03271 144H16a1 1 0 0 0 0 2H152a1 1 0 0 0 0-2zM31 56.99951A8 8 0 1 1 39.001 65 8.009 8.009 0 0 1 31 56.99951zM39.85059 66.957a9.97324 9.97324 0 0 0 7.167-3.998l-.00488.00677L60.76758 84H47.88092zM22.80469 93.03906a59.97158 59.97158 0 0 1-.71088-6.10449.85478.85478 0 0 1 .22937-.64941A.91467.91467 0 0 1 23 86H145a.91467.91467 0 0 1 .67682.28516.85447.85447 0 0 1 .22949.64844 60.02533 60.02533 0 0 1-.711 6.10547A1.00407 1.00407 0 0 0 145 93H23A1.00407 1.00407 0 0 0 22.80469 93.03906zM23.17767 95H144.82233c-5.68665 28.04486-30.963 49-60.82233 49S28.86432 123.04486 23.17767 95zM11 144H6a1 1 0 0 0 0 2h5a1 1 0 0 0 0-2z"></path><circle cx="1" cy="145" r="1" fill="#2d4356"></circle><path fill="#2d4356" d="M162,144h-5a1,1,0,0,0,0,2h5a1,1,0,0,0,0-2Z"></path><circle cx="167" cy="145" r="1" fill="#2d4356"></circle><path fill="#0bceb2" d="M119,150H109a1,1,0,0,0,0,2h10a1,1,0,0,0,0-2Z"></path><circle cx="125" cy="46.187" r="1" fill="#0bceb2"></circle><circle cx="79" cy="50.187" r="1" fill="#0bceb2"></circle><circle cx="91" cy="134" r="1" fill="#0bceb2"></circle><polygon fill="#0bceb2" points="10.583 68.511 12.07 66.556 11.131 66.024 10.177 68.214 10.145 68.214 9.175 66.039 8.22 66.587 9.691 68.496 9.691 68.527 7.391 68.23 7.391 69.294 9.707 68.997 9.707 69.028 8.22 70.936 9.112 71.5 10.13 69.294 10.16 69.294 11.099 71.484 12.085 70.921 10.583 69.043 10.583 69.012 12.945 69.294 12.945 68.23 10.583 68.542 10.583 68.511"></polygon><polygon fill="#0bceb2" points="52.777 5.567 51.92 6.666 52.434 6.99 53.02 5.72 53.038 5.72 53.578 6.981 54.146 6.657 53.281 5.575 53.281 5.557 54.641 5.72 54.641 5.107 53.281 5.287 53.281 5.269 54.137 4.143 53.597 3.837 53.047 5.098 53.029 5.098 52.471 3.845 51.92 4.161 52.768 5.26 52.768 5.278 51.443 5.107 51.443 5.72 52.777 5.549 52.777 5.567"></polygon><polygon fill="#0bceb2" points="14.683 16.446 16.142 14.528 15.221 14.006 14.285 16.154 14.253 16.154 13.302 14.021 12.365 14.559 13.808 16.431 13.808 16.462 11.552 16.17 11.552 17.213 13.823 16.922 13.823 16.953 12.365 18.825 13.24 19.378 14.238 17.213 14.268 17.213 15.189 19.362 16.156 18.81 14.683 16.968 14.683 16.937 17 17.213 17 16.17 14.683 16.477 14.683 16.446"></polygon><polygon fill="#0bceb2" points="165.442 69.748 165.442 68.848 163.443 69.112 163.443 69.086 164.701 67.431 163.907 66.981 163.099 68.834 163.073 68.834 162.252 66.994 161.444 67.458 162.689 69.073 162.689 69.099 160.742 68.848 160.742 69.748 162.702 69.496 162.702 69.523 161.444 71.138 162.198 71.615 163.06 69.748 163.085 69.748 163.88 71.601 164.714 71.125 163.443 69.536 163.443 69.509 165.442 69.748"></polygon><path fill="#0bceb2" d="M105 150H63a1 1 0 0 0 0 2H81v2H71a1 1 0 0 0 0 2H98a1 1 0 0 0 0-2H87v-2h18a1 1 0 0 0 0-2zM59 150H49a1 1 0 0 0 0 2H59a1 1 0 0 0 0-2z"></path></svg>