<svg xmlns:xlink="http://www.w3.org/1999/xlink" xmlns="http://www.w3.org/2000/svg" width="1599" height="800" viewBox="0 0 1599 800" fill="none">
<mask id="mask0_28_1918" style="mask-type:alpha" maskUnits="userSpaceOnUse" x="-1" y="0" width="1600" height="800">
<rect x="-1" width="1600" height="800" fill="url(#paint0_radial_28_1918)"/>
</mask>
<g mask="url(#mask0_28_1918)">
<path fill-rule="evenodd" clip-rule="evenodd" d="M65.1667 419.5V360.5H-1V359.5H65.1667V300.5H-1V299.5H65.1667V240.5H-1V239.5H65.1667V180.5H-1V179.5H65.1667V120.5H-1V119.5H65.1667V60.4999L-1 60.4999V59.4999L65.1667 59.4999V0H66.1667V59.4999H131.833V0H132.833V59.4999L198.5 59.4999V0H199.5V59.4999L265.167 59.4999V0H266.167V59.4999L331.833 59.5V0H332.833V59.5H398.5V0H399.5V59.5L465.167 59.5V0H466.167V59.5L531.833 59.5V0H532.833V59.5H598.5V0H599.5V59.5L665.167 59.5V0H666.167V59.5L731.833 59.5V0H732.833V59.5H798.5V0H799.5V59.5H865.167V0H866.167V59.5L931.833 59.5V0H932.833V59.5L998.5 59.5V0H999.5V59.5H1065.17V0H1066.17V59.5L1131.83 59.5V0H1132.83V59.5L1198.5 59.5V0H1199.5V59.5H1265.17V0H1266.17V59.5L1331.83 59.5V0H1332.83V59.5L1398.5 59.5V0H1399.5V59.5L1465.17 59.5V0H1466.17V59.5H1531.83V0H1532.83V59.5L1599 59.5V60.5L1532.83 60.5V119.5H1599V120.5H1532.83V179.5H1599V180.5H1532.83V239.5H1599V240.5H1532.83V299.5H1599V300.5H1532.83V359.5H1599V360.5H1532.83V419.5H1599V420.5H1532.83V479.5H1599V480.5H1532.83V539.5H1599V540.5H1532.83V599.5H1599V600.5H1532.83V659.5H1599V660.5H1532.83V719.5H1599V720.5H1532.83V779.5H1599V780.5H1532.83V839.5H1599V840.5H1532.83V899.5H1599V900.5H1532.83V959.5H1599V960.5H1532.83V1019.5H1599V1020.5H1532.83V1079.5H1599V1080.5H1532.83V1139.5H1599V1140.5H1532.83V1199.5H1599V1200.5H1532.83V1259.5H1599V1260.5H1532.83V1319.5H1599V1320.5H1532.83V1379.5H1599V1380.5H1532.83V1440H1531.83V1380.5H1466.17V1440H1465.17V1380.5H1399.5V1440H1398.5V1380.5H1332.83V1440H1331.83V1380.5H1266.17V1440H1265.17V1380.5H1199.5V1440H1198.5V1380.5H1132.83V1440H1131.83V1380.5H1066.17V1440H1065.17V1380.5H999.5V1440H998.5V1380.5H932.833V1440H931.833V1380.5H866.167V1440H865.167V1380.5H799.5V1440H798.5V1380.5H732.833V1440H731.833V1380.5H666.167V1440H665.167V1380.5H599.5V1440H598.5V1380.5H532.833V1440H531.833V1380.5H466.167V1440H465.167V1380.5H399.5V1440H398.5V1380.5H332.833V1440H331.833V1380.5H266.167V1440H265.167V1380.5H199.5V1440H198.5V1380.5H132.833V1440H131.833V1380.5H66.1667V1440H65.1667V1380.5H-1V1379.5H65.1667V1320.5H-1V1319.5H65.1667V1260.5H-1V1259.5H65.1667V1200.5H-1V1199.5H65.1667V1140.5H-1V1139.5H65.1667V1080.5H-1V1079.5H65.1667V1020.5H-1V1019.5H65.1667V960.5H-1V959.5H65.1667V900.5H-1V899.5H65.1667V840.5H-1V839.5H65.1667V780.5H-1V779.5H65.1667V720.5H-1V719.5H65.1667V660.5H-1V659.5H65.1667V600.5H-1V599.5H65.1667V540.5H-1V539.5H65.1667V480.5H-1V479.5H65.1667V420.5H-1V419.5H65.1667ZM66.1667 1260.5V1319.5H131.833V1260.5H66.1667ZM131.833 1259.5H66.1667V1200.5H131.833V1259.5ZM132.833 1260.5V1319.5H198.5V1260.5H132.833ZM198.5 1259.5H132.833V1200.5H198.5V1259.5ZM199.5 1260.5V1319.5H265.167V1260.5H199.5ZM265.167 1259.5H199.5V1200.5H265.167V1259.5ZM266.167 1260.5V1319.5H331.833V1260.5H266.167ZM331.833 1259.5H266.167V1200.5H331.833V1259.5ZM332.833 1260.5V1319.5H398.5V1260.5H332.833ZM398.5 1259.5H332.833V1200.5H398.5V1259.5ZM399.5 1260.5V1319.5H465.167V1260.5H399.5ZM465.167 1259.5H399.5V1200.5H465.167V1259.5ZM466.167 1260.5V1319.5H531.833V1260.5H466.167ZM531.833 1259.5H466.167V1200.5H531.833V1259.5ZM532.833 1260.5V1319.5H598.5V1260.5H532.833ZM598.5 1259.5H532.833V1200.5H598.5V1259.5ZM599.5 1260.5V1319.5H665.167V1260.5H599.5ZM665.167 1259.5H599.5V1200.5H665.167V1259.5ZM666.167 1260.5V1319.5H731.833V1260.5H666.167ZM731.833 1259.5H666.167V1200.5H731.833V1259.5ZM732.833 1260.5V1319.5H798.5V1260.5H732.833ZM798.5 1259.5H732.833V1200.5H798.5V1259.5ZM799.5 1260.5V1319.5H865.167V1260.5H799.5ZM865.167 1259.5H799.5V1200.5H865.167V1259.5ZM866.167 1260.5V1319.5H931.833V1260.5H866.167ZM931.833 1259.5H866.167V1200.5H931.833V1259.5ZM932.833 1260.5V1319.5H998.5V1260.5H932.833ZM998.5 1259.5H932.833V1200.5H998.5V1259.5ZM999.5 1260.5V1319.5H1065.17V1260.5H999.5ZM1065.17 1259.5H999.5V1200.5H1065.17V1259.5ZM1066.17 1260.5V1319.5H1131.83V1260.5H1066.17ZM1131.83 1259.5H1066.17V1200.5H1131.83V1259.5ZM1132.83 1260.5V1319.5H1198.5V1260.5H1132.83ZM1198.5 1259.5H1132.83V1200.5H1198.5V1259.5ZM1199.5 1260.5V1319.5H1265.17V1260.5H1199.5ZM1265.17 1259.5H1199.5V1200.5H1265.17V1259.5ZM1266.17 1260.5V1319.5H1331.83V1260.5H1266.17ZM1331.83 1259.5H1266.17V1200.5H1331.83V1259.5ZM1332.83 1260.5V1319.5H1398.5V1260.5H1332.83ZM1398.5 1259.5H1332.83V1200.5H1398.5V1259.5ZM1399.5 1260.5V1319.5H1465.17V1260.5H1399.5ZM1465.17 1259.5H1399.5V1200.5H1465.17V1259.5ZM1466.17 1260.5V1319.5H1531.83V1260.5H1466.17ZM1531.83 1259.5H1466.17V1200.5H1531.83V1259.5ZM1531.83 840.5V899.5H1466.17V840.5H1531.83ZM1465.17 840.5V899.5H1399.5V840.5H1465.17ZM1465.17 900.5H1399.5V959.5H1465.17V900.5ZM1398.5 840.5V899.5H1332.83V840.5H1398.5ZM1398.5 900.5H1332.83V959.5H1398.5V900.5ZM1331.83 840.5V899.5H1266.17V840.5H1331.83ZM1331.83 900.5H1266.17V959.5H1331.83V900.5ZM1265.17 840.5V899.5H1199.5V840.5H1265.17ZM1265.17 900.5H1199.5V959.5H1265.17V900.5ZM1198.5 840.5V899.5H1132.83V840.5H1198.5ZM1198.5 900.5H1132.83V959.5H1198.5V900.5ZM1131.83 840.5V899.5H1066.17V840.5H1131.83ZM1131.83 900.5H1066.17V959.5H1131.83V900.5ZM1065.17 840.5V899.5H999.5V840.5H1065.17ZM1065.17 900.5H999.5V959.5H1065.17V900.5ZM998.5 840.5V899.5H932.833V840.5H998.5ZM998.5 900.5H932.833V959.5H998.5V900.5ZM931.833 840.5V899.5H866.167V840.5H931.833ZM931.833 900.5H866.167V959.5H931.833V900.5ZM865.167 840.5V899.5H799.5V840.5H865.167ZM865.167 900.5H799.5V959.5H865.167V900.5ZM798.5 840.5V899.5H732.833V840.5H798.5ZM798.5 900.5H732.833V959.5H798.5V900.5ZM731.833 840.5V899.5H666.167V840.5H731.833ZM731.833 900.5H666.167V959.5H731.833V900.5ZM665.167 840.5V899.5H599.5V840.5H665.167ZM665.167 900.5H599.5V959.5H665.167V900.5ZM598.5 840.5V899.5H532.833V840.5H598.5ZM598.5 900.5H532.833V959.5H598.5V900.5ZM531.833 840.5V899.5H466.167V840.5H531.833ZM531.833 900.5H466.167V959.5H531.833V900.5ZM465.167 840.5V899.5H399.5V840.5H465.167ZM465.167 900.5H399.5V959.5H465.167V900.5ZM398.5 840.5V899.5H332.833V840.5H398.5ZM398.5 900.5H332.833V959.5H398.5V900.5ZM331.833 840.5V899.5H266.167V840.5H331.833ZM331.833 900.5H266.167V959.5H331.833V900.5ZM265.167 840.5V899.5H199.5V840.5H265.167ZM265.167 900.5H199.5V959.5H265.167V900.5ZM198.5 840.5V899.5H132.833V840.5H198.5ZM198.5 900.5H132.833V959.5H198.5V900.5ZM131.833 840.5V899.5H66.1667V840.5H131.833ZM131.833 900.5H66.1667V959.5H131.833V900.5ZM1531.83 900.5H1466.17V959.5H1531.83V900.5ZM66.1667 420.5V479.5H131.833V420.5H66.1667ZM131.833 419.5H66.1667V360.5H131.833V419.5ZM132.833 420.5V479.5H198.5V420.5H132.833ZM198.5 419.5H132.833V360.5H198.5V419.5ZM199.5 420.5V479.5H265.167V420.5H199.5ZM265.167 419.5H199.5V360.5H265.167V419.5ZM266.167 420.5V479.5H331.833V420.5H266.167ZM331.833 419.5H266.167V360.5H331.833V419.5ZM332.833 420.5V479.5H398.5V420.5H332.833ZM398.5 419.5H332.833V360.5H398.5V419.5ZM399.5 420.5V479.5H465.167V420.5H399.5ZM465.167 419.5H399.5V360.5H465.167V419.5ZM466.167 420.5V479.5H531.833V420.5H466.167ZM531.833 419.5H466.167V360.5H531.833V419.5ZM532.833 420.5V479.5H598.5V420.5H532.833ZM598.5 419.5H532.833V360.5H598.5V419.5ZM599.5 420.5V479.5H665.167V420.5H599.5ZM665.167 419.5H599.5V360.5H665.167V419.5ZM666.167 420.5V479.5H731.833V420.5H666.167ZM731.833 419.5H666.167V360.5H731.833V419.5ZM732.833 420.5V479.5H798.5V420.5H732.833ZM798.5 419.5H732.833V360.5H798.5V419.5ZM799.5 420.5V479.5H865.167V420.5H799.5ZM865.167 419.5H799.5V360.5H865.167V419.5ZM866.167 420.5V479.5H931.833V420.5H866.167ZM931.833 419.5H866.167V360.5H931.833V419.5ZM932.833 420.5V479.5H998.5V420.5H932.833ZM998.5 419.5H932.833V360.5H998.5V419.5ZM999.5 420.5V479.5H1065.17V420.5H999.5ZM1065.17 419.5H999.5V360.5H1065.17V419.5ZM1066.17 420.5V479.5H1131.83V420.5H1066.17ZM1131.83 419.5H1066.17V360.5H1131.83V419.5ZM1132.83 420.5V479.5H1198.5V420.5H1132.83ZM1198.5 419.5H1132.83V360.5H1198.5V419.5ZM1199.5 420.5V479.5H1265.17V420.5H1199.5ZM1265.17 419.5H1199.5V360.5H1265.17V419.5ZM1266.17 420.5V479.5H1331.83V420.5H1266.17ZM1331.83 419.5H1266.17V360.5H1331.83V419.5ZM1332.83 420.5V479.5H1398.5V420.5H1332.83ZM1398.5 419.5H1332.83V360.5H1398.5V419.5ZM1399.5 420.5V479.5H1465.17V420.5H1399.5ZM1465.17 419.5H1399.5V360.5H1465.17V419.5ZM1466.17 420.5V479.5H1531.83V420.5H1466.17ZM1531.83 419.5H1466.17V360.5H1531.83V419.5ZM1531.83 1320.5V1379.5H1466.17V1320.5H1531.83ZM1465.17 1320.5V1379.5H1399.5V1320.5H1465.17ZM1398.5 1320.5V1379.5H1332.83V1320.5H1398.5ZM1331.83 1320.5V1379.5H1266.17V1320.5H1331.83ZM1265.17 1320.5V1379.5H1199.5V1320.5H1265.17ZM1198.5 1320.5V1379.5H1132.83V1320.5H1198.5ZM1131.83 1320.5V1379.5H1066.17V1320.5H1131.83ZM1065.17 1320.5V1379.5H999.5V1320.5H1065.17ZM998.5 1320.5V1379.5H932.833V1320.5H998.5ZM931.833 1320.5V1379.5H866.167V1320.5H931.833ZM865.167 1320.5V1379.5H799.5V1320.5H865.167ZM798.5 1320.5V1379.5H732.833V1320.5H798.5ZM731.833 1320.5V1379.5H666.167V1320.5H731.833ZM665.167 1320.5V1379.5H599.5V1320.5H665.167ZM598.5 1320.5V1379.5H532.833V1320.5H598.5ZM531.833 1320.5V1379.5H466.167V1320.5H531.833ZM465.167 1320.5V1379.5H399.5V1320.5H465.167ZM398.5 1320.5V1379.5H332.833V1320.5H398.5ZM331.833 1320.5V1379.5H266.167V1320.5H331.833ZM265.167 1320.5V1379.5H199.5V1320.5H265.167ZM198.5 1320.5V1379.5H132.833V1320.5H198.5ZM131.833 1320.5V1379.5H66.1667V1320.5H131.833ZM1531.83 960.5V1019.5H1466.17V960.5H1531.83ZM1465.17 960.5V1019.5H1399.5V960.5H1465.17ZM1465.17 1020.5H1399.5V1079.5H1465.17V1020.5ZM1398.5 960.5V1019.5H1332.83V960.5H1398.5ZM1398.5 1020.5H1332.83V1079.5H1398.5V1020.5ZM1331.83 960.5V1019.5H1266.17V960.5H1331.83ZM1331.83 1020.5H1266.17V1079.5H1331.83V1020.5ZM1265.17 960.5V1019.5H1199.5V960.5H1265.17ZM1265.17 1020.5H1199.5V1079.5H1265.17V1020.5ZM1198.5 960.5V1019.5H1132.83V960.5H1198.5ZM1198.5 1020.5H1132.83V1079.5H1198.5V1020.5ZM1131.83 960.5V1019.5H1066.17V960.5H1131.83ZM1131.83 1020.5H1066.17V1079.5H1131.83V1020.5ZM1065.17 960.5V1019.5H999.5V960.5H1065.17ZM1065.17 1020.5H999.5V1079.5H1065.17V1020.5ZM998.5 960.5V1019.5H932.833V960.5H998.5ZM998.5 1020.5H932.833V1079.5H998.5V1020.5ZM931.833 960.5V1019.5H866.167V960.5H931.833ZM931.833 1020.5H866.167V1079.5H931.833V1020.5ZM865.167 960.5V1019.5H799.5V960.5H865.167ZM865.167 1020.5H799.5V1079.5H865.167V1020.5ZM798.5 960.5V1019.5H732.833V960.5H798.5ZM798.5 1020.5H732.833V1079.5H798.5V1020.5ZM731.833 960.5V1019.5H666.167V960.5H731.833ZM731.833 1020.5H666.167V1079.5H731.833V1020.5ZM665.167 960.5V1019.5H599.5V960.5H665.167ZM665.167 1020.5H599.5V1079.5H665.167V1020.5ZM598.5 960.5V1019.5H532.833V960.5H598.5ZM598.5 1020.5H532.833V1079.5H598.5V1020.5ZM531.833 960.5V1019.5H466.167V960.5H531.833ZM531.833 1020.5H466.167V1079.5H531.833V1020.5ZM465.167 960.5V1019.5H399.5V960.5H465.167ZM465.167 1020.5H399.5V1079.5H465.167V1020.5ZM398.5 960.5V1019.5H332.833V960.5H398.5ZM398.5 1020.5H332.833V1079.5H398.5V1020.5ZM331.833 960.5V1019.5H266.167V960.5H331.833ZM331.833 1020.5H266.167V1079.5H331.833V1020.5ZM265.167 960.5V1019.5H199.5V960.5H265.167ZM265.167 1020.5H199.5V1079.5H265.167V1020.5ZM198.5 960.5V1019.5H132.833V960.5H198.5ZM198.5 1020.5H132.833V1079.5H198.5V1020.5ZM131.833 960.5V1019.5H66.1667V960.5H131.833ZM131.833 1020.5H66.1667V1079.5H131.833V1020.5ZM1531.83 1020.5H1466.17V1079.5H1531.83V1020.5ZM66.1667 660.5V719.5H131.833V660.5H66.1667ZM131.833 659.5H66.1667V600.5H131.833V659.5ZM132.833 660.5V719.5H198.5V660.5H132.833ZM198.5 659.5H132.833V600.5H198.5V659.5ZM199.5 660.5V719.5H265.167V660.5H199.5ZM265.167 659.5H199.5V600.5H265.167V659.5ZM266.167 660.5V719.5H331.833V660.5H266.167ZM331.833 659.5H266.167V600.5H331.833V659.5ZM332.833 660.5V719.5H398.5V660.5H332.833ZM398.5 659.5H332.833V600.5H398.5V659.5ZM399.5 660.5V719.5H465.167V660.5H399.5ZM465.167 659.5H399.5V600.5H465.167V659.5ZM466.167 660.5V719.5H531.833V660.5H466.167ZM531.833 659.5H466.167V600.5H531.833V659.5ZM532.833 660.5V719.5H598.5V660.5H532.833ZM598.5 659.5H532.833V600.5H598.5V659.5ZM599.5 660.5V719.5H665.167V660.5H599.5ZM665.167 659.5H599.5V600.5H665.167V659.5ZM666.167 660.5V719.5H731.833V660.5H666.167ZM731.833 659.5H666.167V600.5H731.833V659.5ZM732.833 660.5V719.5H798.5V660.5H732.833ZM798.5 659.5H732.833V600.5H798.5V659.5ZM799.5 660.5V719.5H865.167V660.5H799.5ZM865.167 659.5H799.5V600.5H865.167V659.5ZM866.167 660.5V719.5H931.833V660.5H866.167ZM931.833 659.5H866.167V600.5H931.833V659.5ZM932.833 660.5V719.5H998.5V660.5H932.833ZM998.5 659.5H932.833V600.5H998.5V659.5ZM999.5 660.5V719.5H1065.17V660.5H999.5ZM1065.17 659.5H999.5V600.5H1065.17V659.5ZM1066.17 660.5V719.5H1131.83V660.5H1066.17ZM1131.83 659.5H1066.17V600.5H1131.83V659.5ZM1132.83 660.5V719.5H1198.5V660.5H1132.83ZM1198.5 659.5H1132.83V600.5H1198.5V659.5ZM1199.5 660.5V719.5H1265.17V660.5H1199.5ZM1265.17 659.5H1199.5V600.5H1265.17V659.5ZM1266.17 660.5V719.5H1331.83V660.5H1266.17ZM1331.83 659.5H1266.17V600.5H1331.83V659.5ZM1332.83 660.5V719.5H1398.5V660.5H1332.83ZM1398.5 659.5H1332.83V600.5H1398.5V659.5ZM1399.5 660.5V719.5H1465.17V660.5H1399.5ZM1465.17 659.5H1399.5V600.5H1465.17V659.5ZM1466.17 660.5V719.5H1531.83V660.5H1466.17ZM1531.83 659.5H1466.17V600.5H1531.83V659.5ZM66.1667 239.5V180.5H131.833V239.5H66.1667ZM132.833 239.5V180.5H198.5V239.5H132.833ZM132.833 179.5H198.5V120.5H132.833V179.5ZM199.5 239.5V180.5H265.167V239.5H199.5ZM199.5 179.5H265.167V120.5H199.5V179.5ZM266.167 239.5V180.5H331.833V239.5H266.167ZM266.167 179.5H331.833V120.5L266.167 120.5V179.5ZM332.833 239.5V180.5H398.5V239.5H332.833ZM332.833 179.5H398.5V120.5H332.833V179.5ZM399.5 239.5V180.5H465.167V239.5H399.5ZM399.5 179.5H465.167V120.5H399.5V179.5ZM466.167 239.5V180.5H531.833V239.5H466.167ZM466.167 179.5H531.833V120.5L466.167 120.5V179.5ZM532.833 239.5V180.5H598.5V239.5H532.833ZM532.833 179.5H598.5V120.5H532.833V179.5ZM599.5 239.5V180.5H665.167V239.5H599.5ZM599.5 179.5H665.167V120.5H599.5V179.5ZM666.167 239.5V180.5H731.833V239.5H666.167ZM666.167 179.5H731.833V120.5L666.167 120.5V179.5ZM732.833 239.5V180.5H798.5V239.5H732.833ZM732.833 179.5H798.5V120.5H732.833V179.5ZM799.5 239.5V180.5H865.167V239.5H799.5ZM799.5 179.5H865.167V120.5H799.5V179.5ZM866.167 239.5V180.5H931.833V239.5H866.167ZM866.167 179.5H931.833V120.5L866.167 120.5V179.5ZM932.833 239.5V180.5H998.5V239.5H932.833ZM932.833 179.5H998.5V120.5H932.833V179.5ZM999.5 239.5V180.5H1065.17V239.5H999.5ZM999.5 179.5H1065.17V120.5H999.5V179.5ZM1066.17 239.5V180.5H1131.83V239.5H1066.17ZM1066.17 179.5H1131.83V120.5L1066.17 120.5V179.5ZM1132.83 239.5V180.5H1198.5V239.5H1132.83ZM1132.83 179.5H1198.5V120.5H1132.83V179.5ZM1199.5 239.5V180.5H1265.17V239.5H1199.5ZM1199.5 179.5H1265.17V120.5H1199.5V179.5ZM1266.17 239.5V180.5H1331.83V239.5H1266.17ZM1266.17 179.5H1331.83V120.5L1266.17 120.5V179.5ZM1332.83 239.5V180.5H1398.5V239.5H1332.83ZM1332.83 179.5H1398.5V120.5H1332.83V179.5ZM1399.5 239.5V180.5H1465.17V239.5H1399.5ZM1399.5 179.5H1465.17V120.5H1399.5V179.5ZM1466.17 239.5V180.5H1531.83V239.5H1466.17ZM1466.17 179.5H1531.83V120.5L1466.17 120.5V179.5ZM66.1667 179.5H131.833V120.5L66.1667 120.5V179.5ZM66.1667 1140.5V1199.5H131.833V1140.5H66.1667ZM131.833 1139.5H66.1667V1080.5H131.833V1139.5ZM132.833 1140.5V1199.5H198.5V1140.5H132.833ZM198.5 1139.5H132.833V1080.5H198.5V1139.5ZM199.5 1140.5V1199.5H265.167V1140.5H199.5ZM265.167 1139.5H199.5V1080.5H265.167V1139.5ZM266.167 1140.5V1199.5H331.833V1140.5H266.167ZM331.833 1139.5H266.167V1080.5H331.833V1139.5ZM332.833 1140.5V1199.5H398.5V1140.5H332.833ZM398.5 1139.5H332.833V1080.5H398.5V1139.5ZM399.5 1140.5V1199.5H465.167V1140.5H399.5ZM465.167 1139.5H399.5V1080.5H465.167V1139.5ZM466.167 1140.5V1199.5H531.833V1140.5H466.167ZM531.833 1139.5H466.167V1080.5H531.833V1139.5ZM532.833 1140.5V1199.5H598.5V1140.5H532.833ZM598.5 1139.5H532.833V1080.5H598.5V1139.5ZM599.5 1140.5V1199.5H665.167V1140.5H599.5ZM665.167 1139.5H599.5V1080.5H665.167V1139.5ZM666.167 1140.5V1199.5H731.833V1140.5H666.167ZM731.833 1139.5H666.167V1080.5H731.833V1139.5ZM732.833 1140.5V1199.5H798.5V1140.5H732.833ZM798.5 1139.5H732.833V1080.5H798.5V1139.5ZM799.5 1140.5V1199.5H865.167V1140.5H799.5ZM865.167 1139.5H799.5V1080.5H865.167V1139.5ZM866.167 1140.5V1199.5H931.833V1140.5H866.167ZM931.833 1139.5H866.167V1080.5H931.833V1139.5ZM932.833 1140.5V1199.5H998.5V1140.5H932.833ZM998.5 1139.5H932.833V1080.5H998.5V1139.5ZM999.5 1140.5V1199.5H1065.17V1140.5H999.5ZM1065.17 1139.5H999.5V1080.5H1065.17V1139.5ZM1066.17 1140.5V1199.5H1131.83V1140.5H1066.17ZM1131.83 1139.5H1066.17V1080.5H1131.83V1139.5ZM1132.83 1140.5V1199.5H1198.5V1140.5H1132.83ZM1198.5 1139.5H1132.83V1080.5H1198.5V1139.5ZM1199.5 1140.5V1199.5H1265.17V1140.5H1199.5ZM1265.17 1139.5H1199.5V1080.5H1265.17V1139.5ZM1266.17 1140.5V1199.5H1331.83V1140.5H1266.17ZM1331.83 1139.5H1266.17V1080.5H1331.83V1139.5ZM1332.83 1140.5V1199.5H1398.5V1140.5H1332.83ZM1398.5 1139.5H1332.83V1080.5H1398.5V1139.5ZM1399.5 1140.5V1199.5H1465.17V1140.5H1399.5ZM1465.17 1139.5H1399.5V1080.5H1465.17V1139.5ZM1466.17 1140.5V1199.5H1531.83V1140.5H1466.17ZM1531.83 1139.5H1466.17V1080.5H1531.83V1139.5ZM1531.83 720.5V779.5H1466.17V720.5H1531.83ZM1465.17 720.5V779.5H1399.5V720.5H1465.17ZM1465.17 780.5H1399.5V839.5H1465.17V780.5ZM1398.5 720.5V779.5H1332.83V720.5H1398.5ZM1398.5 780.5H1332.83V839.5H1398.5V780.5ZM1331.83 720.5V779.5H1266.17V720.5H1331.83ZM1331.83 780.5H1266.17V839.5H1331.83V780.5ZM1265.17 720.5V779.5H1199.5V720.5H1265.17ZM1265.17 780.5H1199.5V839.5H1265.17V780.5ZM1198.5 720.5V779.5H1132.83V720.5H1198.5ZM1198.5 780.5H1132.83V839.5H1198.5V780.5ZM1131.83 720.5V779.5H1066.17V720.5H1131.83ZM1131.83 780.5H1066.17V839.5H1131.83V780.5ZM1065.17 720.5V779.5H999.5V720.5H1065.17ZM1065.17 780.5H999.5V839.5H1065.17V780.5ZM998.5 720.5V779.5H932.833V720.5H998.5ZM998.5 780.5H932.833V839.5H998.5V780.5ZM931.833 720.5V779.5H866.167V720.5H931.833ZM931.833 780.5H866.167V839.5H931.833V780.5ZM865.167 720.5V779.5H799.5V720.5H865.167ZM865.167 780.5H799.5V839.5H865.167V780.5ZM798.5 720.5V779.5H732.833V720.5H798.5ZM798.5 780.5H732.833V839.5H798.5V780.5ZM731.833 720.5V779.5H666.167V720.5H731.833ZM731.833 780.5H666.167V839.5H731.833V780.5ZM665.167 720.5V779.5H599.5V720.5H665.167ZM665.167 780.5H599.5V839.5H665.167V780.5ZM598.5 720.5V779.5H532.833V720.5H598.5ZM598.5 780.5H532.833V839.5H598.5V780.5ZM531.833 720.5V779.5H466.167V720.5H531.833ZM531.833 780.5H466.167V839.5H531.833V780.5ZM465.167 720.5V779.5H399.5V720.5H465.167ZM465.167 780.5H399.5V839.5H465.167V780.5ZM398.5 720.5V779.5H332.833V720.5H398.5ZM398.5 780.5H332.833V839.5H398.5V780.5ZM331.833 720.5V779.5H266.167V720.5H331.833ZM331.833 780.5H266.167V839.5H331.833V780.5ZM265.167 720.5V779.5H199.5V720.5H265.167ZM265.167 780.5H199.5V839.5H265.167V780.5ZM198.5 720.5V779.5H132.833V720.5H198.5ZM198.5 780.5H132.833V839.5H198.5V780.5ZM131.833 720.5V779.5H66.1667V720.5H131.833ZM131.833 780.5H66.1667V839.5H131.833V780.5ZM1531.83 780.5H1466.17V839.5H1531.83V780.5ZM1531.83 299.5V240.5H1466.17V299.5H1531.83ZM1466.17 300.5H1531.83V359.5H1466.17V300.5ZM1465.17 299.5V240.5H1399.5V299.5H1465.17ZM1399.5 300.5H1465.17V359.5H1399.5V300.5ZM1398.5 299.5V240.5H1332.83V299.5H1398.5ZM1332.83 300.5H1398.5V359.5H1332.83V300.5ZM1331.83 299.5V240.5H1266.17V299.5H1331.83ZM1266.17 300.5H1331.83V359.5H1266.17V300.5ZM1265.17 299.5V240.5H1199.5V299.5H1265.17ZM1199.5 300.5H1265.17V359.5H1199.5V300.5ZM1198.5 299.5V240.5H1132.83V299.5H1198.5ZM1132.83 300.5H1198.5V359.5H1132.83V300.5ZM1131.83 299.5V240.5H1066.17V299.5H1131.83ZM1066.17 300.5H1131.83V359.5H1066.17V300.5ZM1065.17 299.5V240.5H999.5V299.5H1065.17ZM999.5 300.5H1065.17V359.5H999.5V300.5ZM998.5 299.5V240.5H932.833V299.5H998.5ZM932.833 300.5H998.5V359.5H932.833V300.5ZM931.833 299.5V240.5H866.167V299.5H931.833ZM866.167 300.5H931.833V359.5H866.167V300.5ZM865.167 299.5V240.5H799.5V299.5H865.167ZM799.5 300.5H865.167V359.5H799.5V300.5ZM798.5 299.5V240.5H732.833V299.5H798.5ZM732.833 300.5H798.5V359.5H732.833V300.5ZM731.833 299.5V240.5H666.167V299.5H731.833ZM666.167 300.5H731.833V359.5H666.167V300.5ZM665.167 299.5V240.5H599.5V299.5H665.167ZM599.5 300.5H665.167V359.5H599.5V300.5ZM598.5 299.5V240.5H532.833V299.5H598.5ZM532.833 300.5H598.5V359.5H532.833V300.5ZM531.833 299.5V240.5H466.167V299.5H531.833ZM466.167 300.5H531.833V359.5H466.167V300.5ZM465.167 299.5V240.5H399.5V299.5H465.167ZM399.5 300.5H465.167V359.5H399.5V300.5ZM398.5 299.5V240.5H332.833V299.5H398.5ZM332.833 300.5H398.5V359.5H332.833V300.5ZM331.833 299.5V240.5H266.167V299.5H331.833ZM266.167 300.5H331.833V359.5H266.167V300.5ZM265.167 299.5V240.5H199.5V299.5H265.167ZM199.5 300.5H265.167V359.5H199.5V300.5ZM198.5 299.5V240.5H132.833V299.5H198.5ZM132.833 300.5H198.5V359.5H132.833V300.5ZM131.833 299.5V240.5H66.1667V299.5H131.833ZM66.1667 300.5H131.833V359.5H66.1667V300.5ZM1531.83 480.5V539.5H1466.17V480.5H1531.83ZM1465.17 480.5V539.5H1399.5V480.5H1465.17ZM1465.17 540.5H1399.5V599.5H1465.17V540.5ZM1398.5 480.5V539.5H1332.83V480.5H1398.5ZM1398.5 540.5H1332.83V599.5H1398.5V540.5ZM1331.83 480.5V539.5H1266.17V480.5H1331.83ZM1331.83 540.5H1266.17V599.5H1331.83V540.5ZM1265.17 480.5V539.5H1199.5V480.5H1265.17ZM1265.17 540.5H1199.5V599.5H1265.17V540.5ZM1198.5 480.5V539.5H1132.83V480.5H1198.5ZM1198.5 540.5H1132.83V599.5H1198.5V540.5ZM1131.83 480.5V539.5H1066.17V480.5H1131.83ZM1131.83 540.5H1066.17V599.5H1131.83V540.5ZM1065.17 480.5V539.5H999.5V480.5H1065.17ZM1065.17 540.5H999.5V599.5H1065.17V540.5ZM998.5 480.5V539.5H932.833V480.5H998.5ZM998.5 540.5H932.833V599.5H998.5V540.5ZM931.833 480.5V539.5H866.167V480.5H931.833ZM931.833 540.5H866.167V599.5H931.833V540.5ZM865.167 480.5V539.5H799.5V480.5H865.167ZM865.167 540.5H799.5V599.5H865.167V540.5ZM798.5 480.5V539.5H732.833V480.5H798.5ZM798.5 540.5H732.833V599.5H798.5V540.5ZM731.833 480.5V539.5H666.167V480.5H731.833ZM731.833 540.5H666.167V599.5H731.833V540.5ZM665.167 480.5V539.5H599.5V480.5H665.167ZM665.167 540.5H599.5V599.5H665.167V540.5ZM598.5 480.5V539.5H532.833V480.5H598.5ZM598.5 540.5H532.833V599.5H598.5V540.5ZM531.833 480.5V539.5H466.167V480.5H531.833ZM531.833 540.5H466.167V599.5H531.833V540.5ZM465.167 480.5V539.5H399.5V480.5H465.167ZM465.167 540.5H399.5V599.5H465.167V540.5ZM398.5 480.5V539.5H332.833V480.5H398.5ZM398.5 540.5H332.833V599.5H398.5V540.5ZM331.833 480.5V539.5H266.167V480.5H331.833ZM331.833 540.5H266.167V599.5H331.833V540.5ZM265.167 480.5V539.5H199.5V480.5H265.167ZM265.167 540.5H199.5V599.5H265.167V540.5ZM198.5 480.5V539.5H132.833V480.5H198.5ZM198.5 540.5H132.833V599.5H198.5V540.5ZM131.833 480.5V539.5H66.1667V480.5H131.833ZM131.833 540.5H66.1667V599.5H131.833V540.5ZM1531.83 540.5H1466.17V599.5H1531.83V540.5ZM1531.83 60.5H1466.17V119.5L1531.83 119.5V60.5ZM1465.17 60.5L1399.5 60.5V119.5H1465.17V60.5ZM1398.5 60.5L1332.83 60.5V119.5H1398.5V60.5ZM1331.83 60.5L1266.17 60.5V119.5L1331.83 119.5V60.5ZM1265.17 60.5H1199.5V119.5H1265.17V60.5ZM1198.5 60.5L1132.83 60.5V119.5H1198.5V60.5ZM1131.83 60.5L1066.17 60.5V119.5L1131.83 119.5V60.5ZM1065.17 60.5H999.5V119.5H1065.17V60.5ZM998.5 60.5L932.833 60.5V119.5H998.5V60.5ZM931.833 60.5L866.167 60.5V119.5L931.833 119.5V60.5ZM865.167 60.5H799.5V119.5H865.167V60.5ZM798.5 60.5H732.833V119.5H798.5V60.5ZM731.833 60.5L666.167 60.5V119.5L731.833 119.5V60.5ZM665.167 60.5L599.5 60.5V119.5H665.167V60.5ZM598.5 60.5H532.833V119.5H598.5V60.5ZM531.833 60.5L466.167 60.5V119.5L531.833 119.5V60.5ZM465.167 60.5L399.5 60.5V119.5H465.167V60.5ZM398.5 60.5H332.833V119.5H398.5V60.5ZM331.833 60.5L266.167 60.4999V119.5L331.833 119.5V60.5ZM265.167 60.4999L199.5 60.4999V119.5H265.167V60.4999ZM198.5 60.4999L132.833 60.4999V119.5H198.5V60.4999ZM131.833 60.4999H66.1667V119.5L131.833 119.5V60.4999Z" fill="#DCDAE2"/>
</g>
<defs>
<radialGradient id="paint0_radial_28_1918" cx="0" cy="0" r="1" gradientUnits="userSpaceOnUse" gradientTransform="translate(799 -7.75192e-05) rotate(90) scale(650.278 766.098)">
<stop stop-color="white"/>
<stop offset="0.991144" stop-color="white" stop-opacity="0"/>
</radialGradient>
</defs>
</svg>